<svg version="1.1" id="Layer_1" xmlns="http://www.w3.org/2000/svg" xmlns:xlink="http://www.w3.org/1999/xlink" x="0px" y="0px"
	 width="100%" viewBox="0 0 500 500" enable-background="new 0 0 500 500" xml:space="preserve">
<path fill="#000000" opacity="1.000000" stroke="none" 
	d="
M278.000000,501.000000 
	C186.666687,501.000000 95.833344,500.975281 5.000192,501.095764 
	C1.576123,501.100281 0.903036,500.423828 0.905301,497.000000 
	C1.013778,333.000092 1.013756,169.000122 0.905337,5.000247 
	C0.903074,1.576946 1.575794,0.903021 4.999876,0.905286 
	C168.999756,1.013775 332.999725,1.013761 496.999634,0.905353 
	C500.422668,0.903091 501.096985,1.575429 501.094727,4.999757 
	C500.986206,168.999634 500.986237,332.999603 501.094604,496.999512 
	C501.096893,500.422272 500.425629,501.102356 497.000244,501.096375 
	C424.167023,500.969208 351.333466,501.000000 278.000000,501.000000 
z"/>
<path fill="#FDFDFD" opacity="1.000000" stroke="none" 
	d="
M159.138855,187.160889 
	C161.760361,199.202713 160.072632,209.820511 150.982300,218.223114 
	C142.613205,225.959000 132.570343,227.964340 121.761124,224.924805 
	C109.537056,221.487381 101.024948,209.907486 100.969208,197.483002 
	C100.903900,182.927277 108.362129,171.203110 121.316032,167.843704 
	C137.320404,163.693192 151.875839,168.565002 159.138855,187.160889 
z"/>
<path fill="#FDFDFD" opacity="1.000000" stroke="none" 
	d="
M395.092377,177.953857 
	C407.678711,196.307419 399.430389,219.950790 378.870270,225.332809 
	C360.339966,230.183456 342.060638,216.424744 341.883575,197.493240 
	C341.752960,183.526978 348.660095,172.075333 360.720642,168.240128 
	C372.752045,164.414169 386.095703,166.074188 395.092377,177.953857 
z"/>
<path fill="#FEFEFE" opacity="1.000000" stroke="none" 
	d="
M275.999939,319.088654 
	C249.335159,319.088654 223.170364,319.094238 197.005585,319.084930 
	C190.041504,319.082458 186.169525,315.758545 186.013626,309.712006 
	C185.854721,303.547821 189.890640,299.684753 196.990738,299.673035 
	C232.988037,299.613678 268.985504,299.668732 304.982819,299.617310 
	C309.764923,299.610474 313.410461,301.046112 315.242584,305.813446 
	C317.782684,312.422974 313.555298,318.993805 306.497589,319.063141 
	C296.499268,319.161407 286.499268,319.088440 275.999939,319.088654 
z"/>
</svg>